<?xml version="1.0" encoding="UTF-8"?>
<svg width="280" height="480" viewBox="0 0 280 480" xmlns="http://www.w3.org/2000/svg">
  <defs>
    <linearGradient id="cardGradient" x1="0%" y1="0%" x2="100%" y2="100%">
      <stop offset="0%" style="stop-color:#2a2a3a;stop-opacity:1" />
      <stop offset="100%" style="stop-color:#1a1a2e;stop-opacity:1" />
    </linearGradient>
    <pattern id="pattern" x="0" y="0" width="20" height="20" patternUnits="userSpaceOnUse">
      <path d="M0 10h20v1H0zM10 0v20h1V0z" fill="#ffffff" fill-opacity="0.1"/>
    </pattern>
  </defs>
  
  <!-- Background -->
  <rect width="280" height="480" fill="url(#cardGradient)"/>
  <rect width="280" height="480" fill="url(#pattern)"/>
  
  <!-- Border -->
  <rect x="10" y="10" width="260" height="460" fill="none" stroke="#d4af37" stroke-width="2" rx="10"/>
  
  <!-- Central symbol -->
  <g transform="translate(140,240)" fill="none" stroke="#d4af37" stroke-width="2">
    <circle r="60"/>
    <path d="M-30,0 A30,30 0 0 1 30,0 A30,30 0 0 1 -30,0"/>
    <circle r="20"/>
    <path d="M0,-20 L0,20"/>
  </g>
  
  <!-- Card name -->
  <rect x="40" y="380" width="200" height="60" rx="5" fill="#000000" fill-opacity="0.5"/>
  <text x="140" y="420" font-family="serif" font-size="24" fill="#d4af37" text-anchor="middle">
    Верховная Жрица
  </text>
</svg> 